# xmcd
#
# Track frame offsets:
#	150
#	19685
#	36423
#	57845
#
# Disc length: 947 seconds
#
# Revision: 1
# Processed by: cddbd v1.5.1PL2 Copyright (c) Steve Scherf et al.
# Submitted via: audiograbber 1.80
#
DISCID=2c03b104
DTITLE=ClutterBillies - Strummin' On My Six-String (EP)
DYEAR=1900
DGENRE=
TTITLE0=Who Wouldn't Wanna Be Me
TTITLE1=I'm In The Mood For You
TTITLE2=Go Rest High
TTITLE3=Where The Blacktop Ends
EXTD=
EXTT0=
EXTT1=
EXTT2=
EXTT3=
PLAYORDER=
